<?xml version="1.0" encoding="UTF-8" standalone="no"?>
<svg
   size="16"
   class="icon icon--OdyseeLogoDarkText header__logo"
   aria-hidden="true"
   data-name="Layer 1"
   id="Layer_1"
   stroke-width="0"
   viewBox="0 0 1000.0007 271.31"
   version="1.1"
   width="1000.0007"
   height="271.31"
   xmlns="http://www.w3.org/2000/svg"
   xmlns:svg="http://www.w3.org/2000/svg">
  <defs
     id="defs6">
    <style
       id="style1">.cls-1--darkLogo{fill:none;}.cls-2--darkLogo{fill:url(#linear-gradient);}.cls-3--darkLogo{clipPath:url(#clipPath);}.cls-4--darkLogo{fill:#fff;}</style>
    <linearGradient
       id="linear-gradient"
       x1="45.599998"
       y1="9.8199997"
       x2="88.360001"
       y2="157.75999"
       gradientUnits="userSpaceOnUse"
       gradientTransform="matrix(2.6327995,0,0,2.6327995,-20.235416,-21.141442)">
      <stop
         offset="0"
         stop-color="#ef1970"
         id="stop1" />
      <stop
         offset="0.14"
         stop-color="#f23b5c"
         id="stop2" />
      <stop
         offset="0.45"
         stop-color="#f77d35"
         id="stop3" />
      <stop
         offset="0.7"
         stop-color="#fcad18"
         id="stop4" />
      <stop
         offset="0.89"
         stop-color="#fecb07"
         id="stop5" />
      <stop
         offset="1"
         stop-color="#ffd600"
         id="stop6" />
    </linearGradient>
  </defs>
  <path
     d="m 548.44928,75.087388 a 276.78621,276.78621 0 0 0 -3.9229,-30.40883 c -0.5529,-2.92242 -1.1848,-6.50302 -2.0536,-11.68963 -0.8688,-5.18663 -1.606,-9.10949 -2.1852,-11.87393 -0.5792,-2.76445 -1.1848,-5.26561 -1.7903,-7.50348 a 13.163997,13.163997 0 0 0 -3.212,-6.47668 12.163534,12.163534 0 0 0 -4.2388,-2.63281 16.507653,16.507653 0 0 0 -5.2656,-0.73719 c -2.0536,0 -8.3197,0 -10.9525,4.58108 -1.0267,1.76398 -1.9482,4.76537 -1.9482,14.66469 a 37.938641,37.938641 0 0 0 0.3686,6.52934 l 0.3686,2.94874 a 106.33877,106.33877 0 0 0 2.3431,13.74322 7.5298066,7.5298066 0 0 0 0.316,0.92148 29.750635,29.750635 0 0 0 0.3949,3.5806 32.30445,32.30445 0 0 0 1.4744,6.50302 16.165389,16.165389 0 0 1 0.7898,4.68638 c 1.2637,14.34875 0.9215,18.11366 0.7898,19.16677 a 2.8170954,2.8170954 0 0 1 -1.2637,0.1843 c -3.6859,0 -39.6499,10.5312 -48.9964,16.74461 a 58.237524,58.237524 0 0 0 -20.4831,21.062392 c -4.4758,8.47762 -5.8448,56.76316 -5.8448,57.23707 -0.237,11.11041 1.685,17.95568 5.9764,21.43099 l 0.8425,0.92148 a 49.865223,49.865223 0 0 0 31.1987,16.32335 232.84479,232.84479 0 0 0 38.1229,1.92194 c 4.7127,0 9.1621,0 13.3219,0 h 0.7899 l 19.3774,-6.31871 -0.6319,-36.8592 c -0.1053,-17.03421 -1.3427,-72.27034 -3.6859,-98.650992 z m -23.1687,99.019592 c -0.2896,2.31686 -0.5265,4.08083 -0.7108,5.26559 a 12.769077,12.769077 0 0 1 -0.7372,2.6328 c -0.1843,0.44758 -0.3423,0.76352 -0.3686,0.86883 l -0.6319,0.26328 a 7.4244946,7.4244946 0 0 1 -2.1062,0.39492 c -1.1058,0 -2.6328,0 -4.8443,0 a 119.34481,119.34481 0 0 1 -26.0911,-3.76491 81.011241,81.011241 0 0 1 -15.4808,-4.66005 v 0 c -2.1062,-4.94966 3.212,-42.12479 17.6924,-52.89294 14.4804,-10.76815 21.7732,-11.95291 25.4065,-10.82081 1.0004,0.31594 4.0545,1.26375 6.1344,7.8984 0.5266,2.6328 1.0794,20.00927 1.3691,29.35572 0.2106,6.50301 0.3685,11.87392 0.5002,13.53258 a 58.527133,58.527133 0 0 1 -0.1317,11.92659 z"
     id="path6"
     style="stroke-width:0" />
  <path
     d="m 641.04488,69.532178 a 21.746924,21.746924 0 0 0 -6.5031,9.37276 v 0.15797 a 107.94478,107.94478 0 0 1 -6.8452,15.5072 28.802827,28.802827 0 0 0 -3.6333,12.611112 11.610646,11.610646 0 0 1 -0.8425,3.31732 13.953837,13.953837 0 0 1 -1.448,3.08037 l -1.1585,-0.73718 a 70.63801,70.63801 0 0 1 -6.582,-5.50255 c -2.6327,-2.6328 -6.187,-6.02911 -10.5311,-10.531202 -18.6139,-18.92983 -29.698,-25.66979 -37.0435,-22.69473 -4.1862,1.71132 -6.3188,6.08176 -6.3188,13.00603 0,4.29146 2.2379,9.71503 6.8717,16.507652 a 254.14413,254.14413 0 0 0 20.1146,24.643 c 13.7168,15.53352 22.9843,19.85132 27.2757,21.66795 a 56.289253,56.289253 0 0 1 -0.9741,11.58431 119.39746,119.39746 0 0 1 -4.976,13.32197 110.57758,110.57758 0 0 0 -6.582,16.82358 53.287861,53.287861 0 0 0 -2.7907,14.45407 c 0,5.55522 0.7898,8.97785 2.6328,11.11042 a 8.3986304,8.3986304 0 0 0 6.7662,2.79077 15.454533,15.454533 0 0 0 3.1857,-0.34227 20.404196,20.404196 0 0 0 7.8984,-2.89608 14.375085,14.375085 0 0 0 5.5816,-5.66051 c 0.4739,-0.89515 1.527,-2.97506 3.133,-6.23974 1.606,-3.26467 2.6328,-5.47622 3.2647,-6.73996 a 65.819987,65.819987 0 0 0 5.0549,-14.2961 c 1.843,-6.79263 3.528,-14.0065 4.9497,-21.35201 1.4217,-7.34551 3.7912,-15.79679 6.5293,-25.45917 2.7381,-9.66238 5.2656,-17.71874 7.5035,-23.93215 3.054,-8.0827 5.2656,-14.533052 6.74,-19.746002 a 52.234742,52.234742 0 0 0 2.3168,-13.71688 13.348294,13.348294 0 0 0 -3.5543,-10.13627 c -4.6863,-4.13351 -14.5067,-4.13351 -20.0355,0.0263 z"
     id="path7"
     style="stroke-width:0" />
  <path
     d="m 760.91618,71.164518 a 8.9251903,8.9251903 0 0 0 -3.4489,-2.29055 14.138133,14.138133 0 0 0 -3.6596,-1.02679 c -0.8689,0 -2.2906,-0.21062 -4.2388,-0.31593 -1.9483,-0.10531 -3.6596,-0.15797 -5.2656,-0.21063 -1.606,-0.0526 -4.1072,0 -7.2402,0 -15.7968,0 -26.8019,2.18524 -33.8051,6.71365 a 45.573759,45.573759 0 0 0 -18.9036,21.48364 c -3.7123,8.688242 -5.6079,20.377872 -5.6079,34.673972 l -0.3159,28.1183 28.9608,9.47807 c 9.2412,3.02773 14.1382,4.92334 16.7183,6.05545 a 40.229176,40.229176 0 0 1 -6.8453,1.92194 64.714212,64.714212 0 0 1 -13.7958,1.50069 100.04638,100.04638 0 0 0 -12.8217,0.55289 12.848061,12.848061 0 0 0 -7.9249,3.1067 10.531198,10.531198 0 0 0 -2.6328,7.71411 14.138133,14.138133 0 0 0 5.8448,11.37369 29.540011,29.540011 0 0 0 13.0062,5.2656 69.900827,69.900827 0 0 0 12.4531,1.05312 h 3.1594 a 67.031075,67.031075 0 0 0 17.0868,-3.00139 54.446293,54.446293 0 0 0 15.3755,-7.37184 35.095217,35.095217 0 0 0 9.8994,-10.32057 26.538619,26.538619 0 0 0 2.7907,-13.164 23.695196,23.695196 0 0 0 -8.267,-19.40373 c -4.9233,-3.9492 -14.0328,-7.8984 -27.8023,-11.68964 -14.5857,-4.39677 -17.1395,-6.55566 -17.6397,-7.13488 -0.5003,-0.57921 -1.843,-3.39631 1.7903,-12.24251 a 60.922981,60.922981 0 0 1 13.5325,-20.1146 c 6.7137,-6.687302 9.952,-8.609252 11.2684,-9.162142 1.3164,-0.55289 4.3705,-1.21109 11.4,-0.21063 2.6328,0.39492 4.6601,0.6582 5.9765,0.78984 a 24.932611,24.932611 0 0 0 4.6337,0 11.689629,11.689629 0 0 0 4.2388,-0.97413 7.4508225,7.4508225 0 0 0 3.2647,-3.50162 10.531198,10.531198 0 0 0 1.1057,-4.15982 c 0,-0.92148 0,-2.29054 0,-4.1335 v -2.55382 a 10.531198,10.531198 0 0 0 -0.6845,-3.68591 9.4517502,9.4517502 0 0 0 -1.606,-3.13303 z"
     id="path8"
     style="stroke-width:0" />
  <path
     d="m 879.57648,88.725288 a 23.431916,23.431916 0 0 0 -2.6328,-5.02865 34.226393,34.226393 0 0 0 -4.3178,-5.2656 l -4.2388,-4.4231 a 51.73451,51.73451 0 0 0 -14.3487,-11.05776 43.59916,43.59916 0 0 0 -17.0869,-2.6328 52.155758,52.155758 0 0 0 -29.777,8.53027 v 0 a 81.090225,81.090225 0 0 0 -17.1659,15.08595 47.206095,47.206095 0 0 0 -8.9515,17.639752 120.23996,120.23996 0 0 0 -3.3963,25.27487 c -1.5007,27.30213 3.212,47.54836 13.9802,60.23846 9.9519,11.68963 25.5645,17.61342 46.5742,17.61342 2.1326,0 4.3178,0 6.5557,-0.18429 l 8.8989,-0.6582 a 56.157614,56.157614 0 0 0 6.3977,-0.8425 19.614357,19.614357 0 0 0 5.2656,-1.47436 10.030966,10.030966 0 0 0 3.5016,-3.00139 9.2147982,9.2147982 0 0 0 1.9483,-4.60741 38.728481,38.728481 0 0 0 0.1842,-4.18615 c 0,-3.65959 -0.4475,-8.79355 -4.2914,-11.08408 -1.764,-1.0268 -4.6601,-1.79031 -13.9012,-0.63188 a 42.467056,42.467056 0 0 1 -23.6952,-4.47575 34.937249,34.937249 0 0 1 -16.7973,-14.92797 l -2.2116,-4.15983 15.3757,-1.68499 a 90.147055,90.147055 0 0 0 21.0624,-4.10717 72.165034,72.165034 0 0 0 17.2711,-8.76722 c 3.6859,-2.6328 6.3714,-4.6074 8.0827,-6.08176 a 22.484108,22.484108 0 0 0 5.2656,-6.73998 24.985267,24.985267 0 0 0 2.7644,-8.08269 c 0.3423,-2.29054 0.6846,-5.87114 0.9742,-10.74182 q 0.3159,-4.92334 0.3159,-7.8984 a 49.022727,49.022727 0 0 0 -0.3949,-6.239742 30.303522,30.303522 0 0 0 -1.2111,-5.39723 z m -66.9785,29.961252 -4.4231,-4.58107 11.1632,-10.8208 a 84.249584,84.249584 0 0 1 10.8208,-9.557072 53.472158,53.472158 0 0 1 5.2656,-3.34365 13.163997,13.163997 0 0 1 4.0018,2.42217 47.969607,47.969607 0 0 1 7.7141,7.371852 l 6.6873,7.8984 -5.9501,5.26559 a 38.07028,38.07028 0 0 1 -9.1621,5.63419 45.889696,45.889696 0 0 1 -10.5312,3.68593 24.879955,24.879955 0 0 1 -9.636,0.36859 13.66423,13.66423 0 0 1 -5.9503,-4.34413 z"
     id="path9"
     style="stroke-width:0" />
  <path
     d="m 999.57948,102.33686 a 27.328459,27.328459 0 0 0 -1.1321,-5.265602 20.430524,20.430524 0 0 0 -2.6328,-5.05498 32.988977,32.988977 0 0 0 -3.7386,-4.73903 l -4.7917,-5.02864 a 52.287398,52.287398 0 0 0 -14.375,-11.05776 43.86244,43.86244 0 0 0 -17.0606,-2.63281 52.234742,52.234742 0 0 0 -29.8033,8.53027 v 0 a 82.511937,82.511937 0 0 0 -17.1395,14.98063 47.995935,47.995935 0 0 0 -8.9516,17.639762 118.73925,118.73925 0 0 0 -3.3699,25.27488 c -1.5007,27.30213 3.1857,47.57469 13.9801,60.23845 9.9257,11.68962 25.5645,17.61343 46.548,17.61343 2.1325,0 4.3178,0 6.5556,-0.1843 l 8.9252,-0.6582 a 50.81303,50.81303 0 0 0 6.3977,-0.84249 20.298884,20.298884 0 0 0 5.2656,-1.44804 10.057294,10.057294 0 0 0 3.528,-3.0014 9.3201102,9.3201102 0 0 0 1.9482,-4.63373 38.728481,38.728481 0 0 0 0.1843,-4.18614 c 0,-3.6596 -0.4475,-8.79356 -4.3178,-11.08409 -1.7639,-1.02679 -4.66,-1.7903 -13.8748,-0.63187 a 42.361744,42.361744 0 0 1 -23.6952,-4.47577 34.989905,34.989905 0 0 1 -16.771,-14.92797 l -2.2379,-4.13349 15.402,-1.71132 a 89.910103,89.910103 0 0 0 21.0624,-4.10717 71.69113,71.69113 0 0 0 17.2711,-8.76722 c 3.6859,-2.6328 6.3977,-4.6074 8.0827,-6.05544 a 23.221291,23.221291 0 0 0 5.2656,-6.73996 25.985731,25.985731 0 0 0 2.6328,-8.10903 c 0.3423,-2.29053 0.6845,-5.87114 0.9741,-10.74182 0.2107,-3.291 0.28962,-5.89747 0.28962,-7.89839 a 49.022727,49.022727 0 0 0 -0.42122,-6.16076 z m -68.0842,24.59035 -4.4231,-4.58107 11.0314,-10.82081 a 88.067143,88.067143 0 0 1 10.9262,-9.55706 49.101711,49.101711 0 0 1 5.2656,-3.317332 13.163997,13.163997 0 0 1 4.0018,2.395852 47.837967,47.837967 0 0 1 7.6878,7.37184 l 6.7136,7.89839 -5.9764,5.26561 a 39.913241,39.913241 0 0 1 -9.1358,5.63418 46.942815,46.942815 0 0 1 -10.5312,3.65959 24.300739,24.300739 0 0 1 -9.6361,0.36859 13.374622,13.374622 0 0 1 -5.9238,-4.31778 z"
     id="path10"
     style="stroke-width:0" />
  <path
     d="m 336.90388,87.566858 a 56.631517,56.631517 0 0 1 14.3224,-2.6328 215.88956,215.88956 0 0 1 21.7206,-1.05312 c 12.0055,0 20.1409,0.42125 24.4324,1.63233 a 37.464737,37.464737 0 0 1 14.5067,9.18848 42.967288,42.967288 0 0 1 9.6887,14.006492 83.354432,83.354432 0 0 1 4.5547,21.37832 127.50648,127.50648 0 0 1 -1.2111,40.25552 q -3.7649,19.43005 -11.321,23.69518 a 157.96797,157.96797 0 0 0 -19.5617,13.69057 35.016233,35.016233 0 0 1 -13.164,7.08222 58.421821,58.421821 0 0 1 -17.6661,-0.23695 62.76594,62.76594 0 0 1 -18.7718,-5.95012 75.692985,75.692985 0 0 1 -17.1395,-13.74321 q -4.976,-4.89702 -7.1086,-7.10857 a 38.754809,38.754809 0 0 1 -4.5547,-5.87114 30.514146,30.514146 0 0 1 -3.0805,-5.58153 41.466592,41.466592 0 0 1 -1.4743,-6.87162 60.39642,60.39642 0 0 1 -0.7636,-8.95151 v -12.74275 q 0,-50.075842 26.5914,-60.185792 z m 52.6559,23.142302 q -11.9265,-11.321032 -14.9016,-11.321032 c -4.2651,0 -9.6887,2.632792 -16.297,7.450822 a 65.977956,65.977956 0 0 0 -15.9811,16.32336 q -10.0046,14.55938 -9.0042,26.32799 1.0005,11.76862 13.4273,25.3012 l 13.7695,14.92797 16.8763,-7.7141 a 46.442583,46.442583 0 0 0 22.2471,-18.85084 37.096145,37.096145 0 0 0 4.5021,-26.32799 49.443974,49.443974 0 0 0 -14.5857,-26.11738 z"
     id="path11"
     style="stroke-width:0" />
  <rect
     class="cls-2--darkLogo"
     x="2.0113873"
     y="-8.5337451e-06"
     width="271.31"
     height="271.31"
     rx="135.64183"
     id="rect11"
     style="fill:url(#linear-gradient);stroke-width:0" />
  <g
     class="cls-3--darkLogo"
     id="g12"
     transform="matrix(2.6327995,0,0,2.6327995,-20.235516,-21.141432)"
     style="stroke-width:0">
    <path
       class="cls-4--darkLogo"
       d="m 17.12,48.17 a 0.9,0.9 0 0 0 0.31,-1.31 1,1 0 0 0 -1.32,-0.3 1,1 0 0 0 1,1.61 z M 73.24,23 a 0.88,0.88 0 0 0 0.3,-1.32 1,1 0 0 0 -1.31,-0.3 1,1 0 0 0 -0.3,1.31 1,1 0 0 0 1.31,0.31 z m 11.93,36.4 a 1.09,1.09 0 1 0 1.32,-0.81 1.13,1.13 0 0 0 -1.32,0.81 z M 69.4,96.2 c -0.41,-0.2 -0.81,0.1 -1,0.61 a 0.83,0.83 0 1 0 1,-0.61 z m -45.89,-68 a 0.51,0.51 0 1 0 0.2,-1 c -0.3,0 -0.61,0.1 -0.61,0.4 a 0.45,0.45 0 0 0 0.41,0.59 z m 3.22,50.12 c -0.41,0.1 -0.71,0.4 -0.61,0.81 a 0.69,0.69 0 0 0 0.81,0.6 c 0.4,0 0.61,-0.4 0.61,-0.81 A 0.69,0.69 0 0 0 26.73,78.31 Z M 94,44 93.39,46.63 91,47.77 l 2.62,0.61 1.12,2.32 0.6,-2.63 L 97.71,47 95.08,46.39 Z M 59.29,22.39 a 6,6 0 0 0 -1,-1.52 1.11,1.11 0 0 0 -1.52,0 1.09,1.09 0 0 0 0,1.52 4.6,4.6 0 0 1 0.61,1 1.18,1.18 0 0 0 1.51,0.51 1.15,1.15 0 0 0 0.4,-1.51 z m 0.5,4.35 a 1,1 0 0 0 -0.6,1.41 4.59,4.59 0 0 1 0.3,3 1.14,1.14 0 0 0 0.91,1.31 h 0.2 a 1,1 0 0 0 1,-0.91 6.14,6.14 0 0 0 -0.4,-4.24 1,1 0 0 0 -1.41,-0.57 z m 37.87,66.4 a 128,128 0 0 0 -6,-18.49 C 89.59,69.43 82.85,63 78.5,59.8 A 3.16,3.16 0 0 1 78.19,55 C 82.44,50.9 90,43 92.45,38.87 c 1.6,-2.92 4.75,-8.46 4.89,-13.26 0.31,-3.57 -0.18,-7.7 -4.91,-9.59 a 6.9,6.9 0 0 0 -7.14,0.92 c -3,2.06 -4,7.7 -6.07,13.32 -2.44,6.48 -6.28,7.3 -8.31,7.3 -2.03,0 -0.7,-2.14 -5.35,-15.59 -4.65,-13.45 -17,-11 -26.29,-5.44 C 27.44,23.6 32.69,38.67 35.63,48.38 34,50 27.74,51.21 22.08,54.24 c -3.52,1.89 -6.53,3.11 -9.47,5.47 -4.09,3.29 -5.86,7 -4.44,12.06 a 7.22,7.22 0 0 0 3.58,4.09 c 3.34,1.52 8.26,-0.69 15.79,-6.35 A 46.19,46.19 0 0 1 39.47,64 c 0,0 4.55,7 8.8,15.27 4.25,8.27 -4.56,11 -5.47,11 -0.91,0 -14.8,-1.35 -11.62,10.38 3.18,11.73 19.92,7.48 28.51,1.82 8.59,-5.66 6.47,-24.16 6.47,-24.16 8.39,-1.31 11.02,7.58 11.84,12.13 0.82,4.55 -1,12.44 7.48,12.64 a 13.28,13.28 0 0 0 3.54,-0.51 c 4.58,-1.06 7.23,-3.36 8.32,-5.81 a 5.84,5.84 0 0 0 0.32,-3.62 z m -42.32,-55 c -8.59,3.24 -12.74,-1 -13.24,-8.79 -0.61,-8.8 7.58,-11 7.58,-11 9.1,-3 11.53,1.31 13.65,7.78 2.12,6.47 0.51,8.8 -7.99,12.03 z"
       id="path12"
       style="stroke-width:0" />
  </g>
</svg>
